<svg width="16" height="16" viewBox="0 0 16 16" fill="var(--foreground)" xmlns="http://www.w3.org/2000/svg"><path d="M13 12.586H3C2.44772 12.586 2 13.0337 2 13.586C2 14.1383 2.44772 14.586 3 14.586H13C13.5523 14.586 14 14.1383 14 13.586C14 13.0337 13.5523 12.586 13 12.586Z" fill="#000000"></path><path d="M8.99994 2.586C8.99994 2.032 8.55394 1.586 7.99994 1.586C7.44594 1.586 6.99994 2.032 6.99994 2.586V7.1719L5.70694 5.8789C5.31522 5.48715 4.68464 5.48715 4.29284 5.8789C3.90104 6.27065 3.90112 6.9032 4.29284 7.2949L7.99984 11L11.7068 7.2949C12.0986 6.90315 12.0986 6.2706 11.7068 5.8789C11.3151 5.48715 10.6845 5.48715 10.2927 5.8789L8.99974 7.1719L8.99994 2.586Z" fill="#000000"></path></svg>